<?xml version="1.0" standalone="no"?>
<!DOCTYPE svg PUBLIC "-//W3C//DTD SVG 20010904//EN"
 "http://www.w3.org/TR/2001/REC-SVG-20010904/DTD/svg10.dtd">
<svg version="1.0" xmlns="http://www.w3.org/2000/svg"
 width="1315.000000pt" height="1315.000000pt" viewBox="0 0 1315.000000 1315.000000"
 preserveAspectRatio="xMidYMid meet">
<metadata>
Created by potrace 1.15, written by Peter Selinger 2001-2017
</metadata>
<g transform="translate(0.000000,1315.000000) scale(0.100000,-0.100000)"
fill="#000000" stroke="none">
<path d="M9785 7180 c-496 -51 -855 -209 -1156 -509 -137 -138 -229 -265 -298
-412 -136 -290 -180 -656 -125 -1039 85 -595 444 -1035 1123 -1373 102 -51
348 -165 546 -252 561 -248 717 -334 833 -460 202 -221 204 -545 4 -750 -159
-163 -371 -238 -677 -239 -181 0 -296 17 -437 64 -281 94 -481 257 -715 583
-34 48 -67 87 -71 87 -9 0 -521 -291 -822 -468 -85 -50 -159 -98 -165 -106
-13 -21 18 -84 110 -221 254 -380 569 -645 980 -825 285 -124 589 -192 943
-212 678 -39 1257 112 1656 430 321 256 513 594 571 1005 19 135 19 460 0 595
-36 251 -120 477 -252 677 -83 125 -295 341 -442 449 -202 150 -522 322 -916
495 -104 46 -246 108 -315 138 -327 144 -504 247 -602 351 -108 116 -148 216
-148 377 0 196 73 336 228 438 90 60 180 87 317 94 300 15 518 -95 716 -361
100 -135 109 -146 123 -146 7 0 152 89 322 198 473 304 624 404 624 417 0 20
-148 235 -223 324 -236 281 -473 447 -784 549 -253 84 -676 129 -948 102z"/>
<path d="M5907 5868 c-4 -689 -7 -1686 -7 -2214 l0 -962 -25 -88 c-70 -246
-183 -372 -381 -425 -105 -28 -325 -31 -428 -6 -195 49 -353 191 -529 478 -32
52 -64 102 -72 113 -13 17 -30 8 -291 -149 -405 -245 -718 -436 -724 -441 -9
-9 81 -172 160 -291 188 -281 437 -497 740 -642 268 -128 529 -187 881 -198
621 -20 1133 157 1460 505 216 229 353 526 426 922 16 88 17 256 20 2373 l4
2277 -614 0 -614 0 -6 -1252z"/>
</g>
</svg>
